<?xml version="1.0" standalone="no"?><!DOCTYPE svg PUBLIC "-//W3C//DTD SVG 1.1//EN" "http://www.w3.org/Graphics/SVG/1.1/DTD/svg11.dtd"><svg t="1714357686345" class="icon" viewBox="0 0 1024 1024" version="1.1" xmlns="http://www.w3.org/2000/svg" p-id="8724" xmlns:xlink="http://www.w3.org/1999/xlink" width="200" height="200"><path d="M128 384a128 128 0 0 1 128-128h288.299a128 128 0 0 1 90.538 37.504l52.95 52.95a128 128 0 0 1 37.546 90.58v373.633a128 128 0 0 1-128 128H256a128 128 0 0 1-128-128V384z" fill="#FABD7F" p-id="8725"></path><path d="M298.667 213.333a128 128 0 0 1 128-128h245.632a128 128 0 0 1 90.538 37.504l95.616 95.616A128 128 0 0 1 896 309.035V640a128 128 0 0 1-128 128H426.667a128 128 0 0 1-128-128V213.333z" fill="#1296DB" p-id="8726"></path><path d="M682.667 213.333v-128a102.987 102.987 0 0 1 72.832 30.166l110.336 110.336A102.987 102.987 0 0 1 896 298.667H768a85.333 85.333 0 0 1-85.333-85.334z" fill="#13227A" p-id="8727"></path></svg>