<?xml version="1.0" standalone="no"?><!DOCTYPE svg PUBLIC "-//W3C//DTD SVG 1.1//EN" "http://www.w3.org/Graphics/SVG/1.1/DTD/svg11.dtd"><svg t="1714357988833" class="icon" viewBox="0 0 1024 1024" version="1.1" xmlns="http://www.w3.org/2000/svg" p-id="11768" xmlns:xlink="http://www.w3.org/1999/xlink" width="200" height="200"><path d="M251.84 64C144.4 72.95 63.83 168.45 63.83 278.87v2.98c0 107.44 86.54 196.97 193.98 196.97h185.03c8.95 0 17.9-2.98 23.87-8.95s8.95-14.92 8.95-23.87V272.9C478.65 150.55 374.2 55.05 251.84 64z m501.37 0c-113.4 0-205.92 92.51-205.92 205.92v173.09c0 8.95 2.98 17.91 8.95 23.87 5.97 5.97 14.92 8.95 23.87 8.95H753.2c113.4 0 205.91-92.51 205.91-205.92 0.01-113.4-92.5-205.91-205.9-205.91zM63.83 753.38c0 113.4 92.51 205.92 205.92 205.92 116.39 0 205.92-98.49 205.92-211.89V598.2c0-35.81-14.92-50.73-32.83-50.73H275.71C162.31 544.48 63.83 637 63.83 753.38z m680.43-208.9H577.13c-8.95 0-17.91 2.98-23.88 8.95-5.97 5.97-8.95 14.92-8.95 23.88V750.4c0 113.4 92.51 205.92 205.92 205.92 116.39 0 208.9-95.5 205.92-211.89 0-110.42-98.48-199.95-211.88-199.95z" fill="#1296db" p-id="11769"></path></svg>